<svg width="186px" height="186px" viewBox="0 0 24 24" fill="none" xmlns="http://www.w3.org/2000/svg" transform="matrix(1, 0, 0, 1, 0, 0)"><g id="SVGRepo_bgCarrier" stroke-width="0"></g><g id="SVGRepo_tracerCarrier" stroke-linecap="round" stroke-linejoin="round" stroke="#3c5aa6" stroke-width="2"><path d="m12 17.328-5.403 3.286a.75.75 0 0 1-1.12-.813l1.456-6.155-4.796-4.123a.75.75 0 0 1 .428-1.316l6.303-.517 2.44-5.835a.75.75 0 0 1 1.384 0l2.44 5.835 6.303.517a.75.75 0 0 1 .427 1.316l-4.795 4.123 1.456 6.155a.75.75 0 0 1-1.12.813L12 17.328z" fill="none"></path></g><g id="SVGRepo_iconCarrier"><path d="m12 17.328-5.403 3.286a.75.75 0 0 1-1.12-.813l1.456-6.155-4.796-4.123a.75.75 0 0 1 .428-1.316l6.303-.517 2.44-5.835a.75.75 0 0 1 1.384 0l2.44 5.835 6.303.517a.75.75 0 0 1 .427 1.316l-4.795 4.123 1.456 6.155a.75.75 0 0 1-1.12.813L12 17.328z" fill="none"></path></g></svg>